<svg width="28" height="14" viewBox="0 0 28 14" fill="none" xmlns="http://www.w3.org/2000/svg">
<path fill-rule="evenodd" clip-rule="evenodd" d="M20.1371 0.958294C19.9347 1.00569 19.7888 1.07248 19.5699 1.21767C19.1732 1.48088 19.2104 1.41645 17.7676 4.33242C17.0551 5.77258 16.4652 6.95518 16.4568 6.96052C16.4484 6.96586 16.0403 6.15658 15.5499 5.1621C14.6548 3.3468 14.5426 3.13459 14.3885 2.96563C13.6726 2.18013 12.2816 2.26669 11.7148 3.13192C11.6621 3.21244 11.1297 4.26955 10.5316 5.48111L9.44437 7.68386L8.68733 6.15164C7.80901 4.37417 7.69912 4.20677 7.27533 4.00202L7.17581 3.95391V3.20279C7.17581 2.54286 7.1707 2.44971 7.13353 2.43527C7.11022 2.42616 6.94169 2.41879 6.759 2.41879H6.42675V3.11003V3.80135H6.31066C5.85969 3.80135 5.26862 4.15215 5.00159 4.57845C4.91446 4.71759 0.461151 13.74 0.461151 13.7774C0.461151 13.7952 5.12806 13.8044 14.1982 13.8044C23.3211 13.8044 27.9351 13.7952 27.9351 13.7773C27.9351 13.7316 22.0329 1.78578 21.9454 1.6544C21.5796 1.10521 20.7967 0.803847 20.1371 0.958294Z" fill="#F2F2F2"/>
</svg>
