<svg width="28" height="28" viewBox="0 0 28 28" fill="none" xmlns="http://www.w3.org/2000/svg">
<path d="M8.33331 22C6.86665 22 5.67998 23.2 5.67998 24.6666C5.67998 26.1333 6.86665 27.3333 8.33331 27.3333C9.79998 27.3333 11 26.1333 11 24.6666C11 23.2 9.79998 22 8.33331 22ZM0.333313 1.99996C0.333313 2.73329 0.933313 3.33329 1.66665 3.33329H2.99998L7.79998 13.4533L5.99998 16.7066C5.02665 18.4933 6.30665 20.6666 8.33331 20.6666H23C23.7333 20.6666 24.3333 20.0666 24.3333 19.3333C24.3333 18.6 23.7333 18 23 18H8.33331L9.79998 15.3333H19.7333C20.7333 15.3333 21.6133 14.7866 22.0666 13.96L26.84 5.30663C27.3333 4.42663 26.6933 3.33329 25.68 3.33329H5.94665L5.05331 1.42663C4.83998 0.959959 4.35998 0.666626 3.85331 0.666626H1.66665C0.933313 0.666626 0.333313 1.26663 0.333313 1.99996ZM21.6666 22C20.2 22 19.0133 23.2 19.0133 24.6666C19.0133 26.1333 20.2 27.3333 21.6666 27.3333C23.1333 27.3333 24.3333 26.1333 24.3333 24.6666C24.3333 23.2 23.1333 22 21.6666 22Z" fill="#7B7B7B"/>
</svg>
