<svg width="75" height="75" viewBox="0 0 75 75" fill="none" xmlns="http://www.w3.org/2000/svg">
<path d="M41.3333 26L52.8333 37.5L41.3333 26ZM52.8333 37.5L41.3333 49L52.8333 37.5ZM52.8333 37.5H22.1667H52.8333ZM72 37.5C72 42.0306 71.1076 46.5168 69.3738 50.7026C67.6401 54.8883 65.0988 58.6916 61.8952 61.8952C58.6916 65.0988 54.8883 67.6401 50.7026 69.3738C46.5168 71.1076 42.0306 72 37.5 72C32.9694 72 28.4832 71.1076 24.2974 69.3738C20.1117 67.6401 16.3084 65.0988 13.1048 61.8952C9.90119 58.6916 7.35994 54.8883 5.62616 50.7026C3.89237 46.5168 3 42.0306 3 37.5C3 28.35 6.63481 19.5748 13.1048 13.1048C19.5748 6.63481 28.35 3 37.5 3C46.65 3 55.4252 6.63481 61.8952 13.1048C68.3652 19.5748 72 28.35 72 37.5Z" stroke="#95353A" stroke-width="5" stroke-linecap="round" stroke-linejoin="round"/>
</svg>
