<svg width="74" height="74" viewBox="0 0 74 74" fill="none" xmlns="http://www.w3.org/2000/svg">
<path d="M33.1667 48.5L21.6667 37L33.1667 48.5ZM21.6667 37L33.1667 25.5L21.6667 37ZM21.6667 37H52.3333H21.6667ZM2.5 37C2.5 32.4694 3.39237 27.9832 5.12616 23.7974C6.85994 19.6117 9.40119 15.8084 12.6048 12.6048C15.8084 9.40119 19.6117 6.85994 23.7974 5.12616C27.9832 3.39237 32.4694 2.5 37 2.5C41.5306 2.5 46.0168 3.39237 50.2026 5.12616C54.3883 6.85994 58.1916 9.40119 61.3952 12.6048C64.5988 15.8084 67.1401 19.6117 68.8738 23.7974C70.6076 27.9832 71.5 32.4694 71.5 37C71.5 46.15 67.8652 54.9252 61.3952 61.3952C54.9252 67.8652 46.15 71.5 37 71.5C27.85 71.5 19.0748 67.8652 12.6048 61.3952C6.13481 54.9252 2.5 46.15 2.5 37V37Z" stroke="#95353A" stroke-width="5" stroke-linecap="round" stroke-linejoin="round"/>
</svg>
