<svg width="23" height="23" viewBox="0 0 23 23" fill="none" xmlns="http://www.w3.org/2000/svg">
<path d="M16.6667 14.6666H15.6133L15.24 14.3066C16.84 12.44 17.6667 9.89331 17.2133 7.18665C16.5867 3.47998 13.4933 0.51998 9.76001 0.0666463C4.12001 -0.626687 -0.626657 4.11998 0.0666768 9.75998C0.52001 13.4933 3.48001 16.5866 7.18668 17.2133C9.89334 17.6666 12.44 16.84 14.3067 15.24L14.6667 15.6133V16.6666L20.3333 22.3333C20.88 22.88 21.7733 22.88 22.32 22.3333C22.8667 21.7866 22.8667 20.8933 22.32 20.3466L16.6667 14.6666ZM8.66668 14.6666C5.34668 14.6666 2.66668 11.9866 2.66668 8.66665C2.66668 5.34665 5.34668 2.66665 8.66668 2.66665C11.9867 2.66665 14.6667 5.34665 14.6667 8.66665C14.6667 11.9866 11.9867 14.6666 8.66668 14.6666Z" fill="#B6B6B6"/>
</svg>
