<svg width="28" height="24" viewBox="0 0 28 24" fill="none" xmlns="http://www.w3.org/2000/svg">
<path d="M11.7334 6.26667C11.2134 6.78667 11.2134 7.61333 11.7334 8.13333L14.2667 10.6667H2.00002C1.26669 10.6667 0.666687 11.2667 0.666687 12C0.666687 12.7333 1.26669 13.3333 2.00002 13.3333H14.2667L11.7334 15.8667C11.2134 16.3867 11.2134 17.2133 11.7334 17.7333C12.2534 18.2533 13.08 18.2533 13.6 17.7333L18.3867 12.9467C18.9067 12.4267 18.9067 11.5867 18.3867 11.0667L13.6 6.26667C13.08 5.74667 12.2534 5.74667 11.7334 6.26667ZM24.6667 21.3333H15.3334C14.6 21.3333 14 21.9333 14 22.6667C14 23.4 14.6 24 15.3334 24H24.6667C26.1334 24 27.3334 22.8 27.3334 21.3333V2.66667C27.3334 1.2 26.1334 0 24.6667 0H15.3334C14.6 0 14 0.6 14 1.33333C14 2.06667 14.6 2.66667 15.3334 2.66667H24.6667V21.3333Z" fill="#7B7B7B"/>
</svg>
